# MagicaVoxel @ Ephtracy

# group
o 

# material
mtllib Bed01.mtl
usemtl palette

# normals
vn -1 0 0
vn 1 0 0
vn 0 0 1
vn 0 0 -1
vn 0 -1 0
vn 0 1 0

# texcoords
vt 0.486328 0.5
vt 0.607422 0.5
vt 0.701172 0.5

# verts
v -0.7 0 1
v -0.7 0 0.8
v -0.7 0 -0.8
v -0.7 0 -1
v -0.7 0.2 0.8
v -0.7 0.2 -0.8
v -0.7 0.3 0.9
v -0.7 0.3 -0.9
v -0.7 0.4 0.9
v -0.7 0.4 -0.6
v -0.7 0.5 0.9
v -0.7 0.5 0
v -0.7 0.5 -0.6
v -0.7 0.5 -0.9
v -0.7 0.6 1
v -0.7 0.6 0.9
v -0.7 0.6 0
v -0.7 0.6 -0.6
v -0.7 0.8 -0.9
v -0.7 0.8 -1
v -0.5 0.5 -0.6
v -0.5 0.5 -0.9
v -0.5 0.6 -0.6
v -0.5 0.7 -0.6
v -0.5 0.7 -0.9
v 0.5 0 1
v 0.5 0 0.9
v 0.5 0 0.8
v 0.5 0 -0.8
v 0.5 0 -0.9
v 0.5 0 -1
v 0.5 0.2 1
v 0.5 0.2 0.9
v 0.5 0.2 0.8
v 0.5 0.2 -0.8
v 0.5 0.2 -0.9
v 0.5 0.2 -1
v -0.5 0 1
v -0.5 0 0.9
v -0.5 0 0.8
v -0.5 0 -0.8
v -0.5 0 -0.9
v -0.5 0 -1
v -0.5 0.2 1
v -0.5 0.2 0.9
v -0.5 0.2 0.8
v -0.5 0.2 -0.8
v -0.5 0.2 -0.9
v -0.5 0.2 -1
v 0 0.5 -0.6
v 0 0.5 -0.9
v 0 0.6 -0.6
v 0 0.7 -0.6
v 0 0.7 -0.9
v 0.7 0 1
v 0.7 0 0.8
v 0.7 0 -0.8
v 0.7 0 -1
v 0.7 0.2 0.8
v 0.7 0.2 -0.8
v 0.7 0.3 0.9
v 0.7 0.3 -0.9
v 0.7 0.4 0.9
v 0.7 0.4 -0.6
v 0.7 0.5 0.9
v 0.7 0.5 0
v 0.7 0.5 -0.6
v 0.7 0.5 -0.9
v 0.7 0.6 1
v 0.7 0.6 0.9
v 0.7 0.6 0
v 0.7 0.6 -0.6
v 0.7 0.8 -0.9
v 0.7 0.8 -1
v -0.7 0 1
v -0.7 0.6 1
v -0.5 0 1
v -0.5 0.2 1
v 0.5 0 1
v 0.5 0.2 1
v 0.7 0 1
v 0.7 0.6 1
v -0.7 0.5 0
v -0.7 0.6 0
v 0.7 0.5 0
v 0.7 0.6 0
v -0.5 0.6 -0.6
v -0.5 0.7 -0.6
v 0 0.6 -0.6
v 0 0.7 -0.6
v -0.7 0 -0.8
v -0.7 0.2 -0.8
v -0.6 0 -0.8
v -0.6 0.2 -0.8
v -0.5 0 -0.8
v -0.5 0.2 -0.8
v 0.5 0 -0.8
v 0.5 0.2 -0.8
v 0.6 0 -0.8
v 0.6 0.2 -0.8
v 0.7 0 -0.8
v 0.7 0.2 -0.8
v -0.7 0.5 -0.9
v -0.7 0.8 -0.9
v -0.5 0.5 -0.9
v -0.5 0.7 -0.9
v 0 0.5 -0.9
v 0 0.7 -0.9
v 0.7 0.5 -0.9
v 0.7 0.8 -0.9
v -0.7 0.5 0.9
v -0.7 0.6 0.9
v 0.7 0.5 0.9
v 0.7 0.6 0.9
v -0.7 0 0.8
v -0.7 0.2 0.8
v -0.6 0 0.8
v -0.6 0.2 0.8
v -0.5 0 0.8
v -0.5 0.2 0.8
v 0.5 0 0.8
v 0.5 0.2 0.8
v 0.6 0 0.8
v 0.6 0.2 0.8
v 0.7 0 0.8
v 0.7 0.2 0.8
v -0.7 0.5 -0.6
v -0.7 0.6 -0.6
v -0.5 0.5 -0.6
v -0.5 0.6 -0.6
v 0 0.5 -0.6
v 0 0.6 -0.6
v 0.7 0.5 -0.6
v 0.7 0.6 -0.6
v -0.7 0 -1
v -0.7 0.8 -1
v -0.5 0 -1
v -0.5 0.2 -1
v 0.5 0 -1
v 0.5 0.2 -1
v 0.7 0 -1
v 0.7 0.8 -1
v -0.7 0 1
v -0.5 0 1
v 0.5 0 1
v 0.7 0 1
v -0.6 0 0.9
v -0.5 0 0.9
v 0.5 0 0.9
v 0.6 0 0.9
v -0.7 0 0.8
v -0.6 0 0.8
v -0.5 0 0.8
v 0.5 0 0.8
v 0.6 0 0.8
v 0.7 0 0.8
v -0.7 0 -0.8
v -0.6 0 -0.8
v -0.5 0 -0.8
v 0.5 0 -0.8
v 0.6 0 -0.8
v 0.7 0 -0.8
v -0.6 0 -0.9
v -0.5 0 -0.9
v 0.5 0 -0.9
v 0.6 0 -0.9
v -0.7 0 -1
v -0.5 0 -1
v 0.5 0 -1
v 0.7 0 -1
v -0.5 0.2 1
v 0.5 0.2 1
v -0.5 0.2 0.9
v 0.5 0.2 0.9
v -0.7 0.2 0.8
v -0.6 0.2 0.8
v -0.5 0.2 0.8
v 0.5 0.2 0.8
v 0.6 0.2 0.8
v 0.7 0.2 0.8
v -0.7 0.2 -0.8
v -0.6 0.2 -0.8
v -0.5 0.2 -0.8
v 0.5 0.2 -0.8
v 0.6 0.2 -0.8
v 0.7 0.2 -0.8
v -0.5 0.2 -0.9
v 0.5 0.2 -0.9
v -0.5 0.2 -1
v 0.5 0.2 -1
v -0.7 0.5 0.9
v 0.7 0.5 0.9
v -0.7 0.5 0
v 0.7 0.5 0
v -0.7 0.5 -0.6
v -0.5 0.5 -0.6
v 0 0.5 -0.6
v 0.7 0.5 -0.6
v -0.7 0.5 -0.9
v -0.5 0.5 -0.9
v 0 0.5 -0.9
v 0.7 0.5 -0.9
v -0.7 0.6 1
v 0.7 0.6 1
v -0.7 0.6 0.9
v 0.7 0.6 0.9
v -0.7 0.6 0
v 0.7 0.6 0
v -0.7 0.6 -0.6
v -0.5 0.6 -0.6
v 0 0.6 -0.6
v 0.7 0.6 -0.6
v -0.5 0.7 -0.6
v 0 0.7 -0.6
v -0.5 0.7 -0.9
v 0 0.7 -0.9
v -0.7 0.8 -0.9
v 0.7 0.8 -0.9
v -0.7 0.8 -1
v 0.7 0.8 -1

# faces
f 5/2/1 2/2/1 1/2/1
f 6/2/1 4/2/1 3/2/1
f 7/2/1 5/2/1 1/2/1
f 7/2/1 6/2/1 5/2/1
f 8/2/1 4/2/1 6/2/1
f 8/2/1 6/2/1 7/2/1
f 9/2/1 7/2/1 1/2/1
f 9/1/1 8/1/1 7/1/1
f 10/1/1 8/1/1 9/1/1
f 11/2/1 9/2/1 1/2/1
f 11/3/1 10/3/1 9/3/1
f 12/3/1 10/3/1 11/3/1
f 13/1/1 8/1/1 10/1/1
f 13/3/1 10/3/1 12/3/1
f 14/2/1 4/2/1 8/2/1
f 14/1/1 8/1/1 13/1/1
f 15/2/1 11/2/1 1/2/1
f 16/2/1 11/2/1 15/2/1
f 17/3/1 13/3/1 12/3/1
f 18/3/1 13/3/1 17/3/1
f 19/2/1 4/2/1 14/2/1
f 20/2/1 4/2/1 19/2/1
f 23/1/1 22/1/1 21/1/1
f 24/1/1 22/1/1 23/1/1
f 25/1/1 22/1/1 24/1/1
f 32/2/1 27/2/1 26/2/1
f 33/1/1 28/1/1 27/1/1
f 33/2/1 27/2/1 32/2/1
f 34/1/1 28/1/1 33/1/1
f 35/1/1 30/1/1 29/1/1
f 36/2/1 31/2/1 30/2/1
f 36/1/1 30/1/1 35/1/1
f 37/2/1 31/2/1 36/2/1
f 38/2/2 39/2/2 44/2/2
f 39/1/2 40/1/2 45/1/2
f 44/2/2 39/2/2 45/2/2
f 45/1/2 40/1/2 46/1/2
f 41/1/2 42/1/2 47/1/2
f 42/2/2 43/2/2 48/2/2
f 47/1/2 42/1/2 48/1/2
f 48/2/2 43/2/2 49/2/2
f 50/1/2 51/1/2 52/1/2
f 52/1/2 51/1/2 53/1/2
f 53/1/2 51/1/2 54/1/2
f 55/2/2 56/2/2 59/2/2
f 57/2/2 58/2/2 60/2/2
f 55/2/2 59/2/2 61/2/2
f 59/2/2 60/2/2 61/2/2
f 60/2/2 58/2/2 62/2/2
f 61/2/2 60/2/2 62/2/2
f 55/2/2 61/2/2 63/2/2
f 61/1/2 62/1/2 63/1/2
f 63/1/2 62/1/2 64/1/2
f 55/2/2 63/2/2 65/2/2
f 63/3/2 64/3/2 65/3/2
f 65/3/2 64/3/2 66/3/2
f 64/1/2 62/1/2 67/1/2
f 66/3/2 64/3/2 67/3/2
f 62/2/2 58/2/2 68/2/2
f 67/1/2 62/1/2 68/1/2
f 55/2/2 65/2/2 69/2/2
f 69/2/2 65/2/2 70/2/2
f 66/3/2 67/3/2 71/3/2
f 71/3/2 67/3/2 72/3/2
f 68/2/2 58/2/2 73/2/2
f 73/2/2 58/2/2 74/2/2
f 77/2/3 76/2/3 75/2/3
f 78/2/3 76/2/3 77/2/3
f 80/2/3 76/2/3 78/2/3
f 81/2/3 80/2/3 79/2/3
f 82/2/3 76/2/3 80/2/3
f 82/2/3 80/2/3 81/2/3
f 85/3/3 84/3/3 83/3/3
f 86/3/3 84/3/3 85/3/3
f 89/1/3 88/1/3 87/1/3
f 90/1/3 88/1/3 89/1/3
f 93/2/3 92/2/3 91/2/3
f 94/2/3 92/2/3 93/2/3
f 95/1/3 94/1/3 93/1/3
f 96/1/3 94/1/3 95/1/3
f 99/1/3 98/1/3 97/1/3
f 100/1/3 98/1/3 99/1/3
f 101/2/3 100/2/3 99/2/3
f 102/2/3 100/2/3 101/2/3
f 105/2/3 104/2/3 103/2/3
f 106/2/3 104/2/3 105/2/3
f 108/2/3 104/2/3 106/2/3
f 109/2/3 108/2/3 107/2/3
f 110/2/3 104/2/3 108/2/3
f 110/2/3 108/2/3 109/2/3
f 111/2/4 112/2/4 113/2/4
f 113/2/4 112/2/4 114/2/4
f 115/2/4 116/2/4 117/2/4
f 117/2/4 116/2/4 118/2/4
f 117/1/4 118/1/4 119/1/4
f 119/1/4 118/1/4 120/1/4
f 121/1/4 122/1/4 123/1/4
f 123/1/4 122/1/4 124/1/4
f 123/2/4 124/2/4 125/2/4
f 125/2/4 124/2/4 126/2/4
f 127/3/4 128/3/4 129/3/4
f 129/3/4 128/3/4 130/3/4
f 131/3/4 132/3/4 133/3/4
f 133/3/4 132/3/4 134/3/4
f 135/2/4 136/2/4 137/2/4
f 137/2/4 136/2/4 138/2/4
f 138/2/4 136/2/4 140/2/4
f 139/2/4 140/2/4 141/2/4
f 140/2/4 136/2/4 142/2/4
f 141/2/4 140/2/4 142/2/4
f 147/2/5 144/2/5 143/2/5
f 148/2/5 144/2/5 147/2/5
f 149/2/5 146/2/5 145/2/5
f 150/2/5 146/2/5 149/2/5
f 151/2/5 147/2/5 143/2/5
f 152/1/5 148/1/5 147/1/5
f 152/2/5 147/2/5 151/2/5
f 153/1/5 148/1/5 152/1/5
f 154/1/5 150/1/5 149/1/5
f 155/2/5 146/2/5 150/2/5
f 155/1/5 150/1/5 154/1/5
f 156/2/5 146/2/5 155/2/5
f 163/2/5 158/2/5 157/2/5
f 163/1/5 159/1/5 158/1/5
f 164/1/5 159/1/5 163/1/5
f 165/1/5 161/1/5 160/1/5
f 166/2/5 162/2/5 161/2/5
f 166/1/5 161/1/5 165/1/5
f 167/2/5 164/2/5 163/2/5
f 167/2/5 163/2/5 157/2/5
f 168/2/5 164/2/5 167/2/5
f 169/2/5 166/2/5 165/2/5
f 170/2/5 162/2/5 166/2/5
f 170/2/5 166/2/5 169/2/5
f 173/2/5 172/2/5 171/2/5
f 174/2/5 172/2/5 173/2/5
f 177/1/5 174/1/5 173/1/5
f 178/1/5 174/1/5 177/1/5
f 181/2/5 176/2/5 175/2/5
f 182/1/5 178/1/5 177/1/5
f 182/2/5 176/2/5 181/2/5
f 182/1/5 177/1/5 176/1/5
f 182/1/5 179/1/5 178/1/5
f 183/1/5 179/1/5 182/1/5
f 184/1/5 179/1/5 183/1/5
f 185/2/5 180/2/5 179/2/5
f 185/1/5 179/1/5 184/1/5
f 186/2/5 180/2/5 185/2/5
f 187/1/5 184/1/5 183/1/5
f 188/1/5 184/1/5 187/1/5
f 189/2/5 188/2/5 187/2/5
f 190/2/5 188/2/5 189/2/5
f 191/3/6 192/3/6 193/3/6
f 193/3/6 192/3/6 194/3/6
f 195/1/6 196/1/6 199/1/6
f 199/1/6 196/1/6 200/1/6
f 197/1/6 198/1/6 201/1/6
f 201/1/6 198/1/6 202/1/6
f 203/2/6 204/2/6 205/2/6
f 205/2/6 204/2/6 206/2/6
f 207/3/6 208/3/6 209/3/6
f 209/3/6 208/3/6 210/3/6
f 210/3/6 208/3/6 211/3/6
f 211/3/6 208/3/6 212/3/6
f 213/1/6 214/1/6 215/1/6
f 215/1/6 214/1/6 216/1/6
f 217/2/6 218/2/6 219/2/6
f 219/2/6 218/2/6 220/2/6
