# MagicaVoxel @ Ephtracy

# group
o 

# material
mtllib Billy01b.mtl
usemtl palette

# normals
vn -1 0 0
vn 1 0 0
vn 0 0 1
vn 0 0 -1
vn 0 -1 0
vn 0 1 0

# texcoords
vt 0.294922 0.5
vt 0.392578 0.5
vt 0.611328 0.5
vt 0.642578 0.5
vt 0.705078 0.5
vt 0.791016 0.5

# verts
v -0.6 0 0.3
v -0.6 0 -0.2
v -0.6 2.2 0.3
v -0.6 2.2 -0.2
v -0.4 1.8 0.2
v -0.4 1.8 0
v -0.4 2 0.2
v -0.4 2 0
v -0.3 1 0.1
v -0.3 1 -0.1
v -0.3 1.2 0.1
v -0.3 1.2 -0.1
v -5.96046e-008 1.4 0.2
v -5.96046e-008 1.4 -0.1
v -5.96046e-008 1.6 0.2
v -5.96046e-008 1.6 -0.1
v 0.1 1 0.3
v 0.1 1 0
v 0.1 1.3 0.3
v 0.1 1.3 0
v 0.1 1.4 0.3
v 0.1 1.4 0.2
v 0.1 1.6 0.2
v 0.1 1.6 0
v 0.1 1.7 0.3
v 0.1 1.7 0
v 0.1 1.8 0.3
v 0.1 1.8 0
v 0.1 2.1 0.3
v 0.1 2.1 0
v 0.2 0.5 0
v 0.2 0.5 -0.1
v 0.2 0.7 0
v 0.2 0.7 -0.1
v 0.2 1 0
v 0.2 1 -0.1
v 0.2 1.1 0
v 0.2 1.1 -0.1
v 0.4 0.1 0.2
v 0.4 0.1 -0.1
v 0.4 0.3 0.2
v 0.4 0.3 -0.1
v 0.5 0.1 0.3
v 0.5 0.1 0.2
v 0.5 0.3 0.2
v 0.5 0.3 -0.1
v 0.5 0.4 0.3
v 0.5 0.4 -0.1
v 0.5 0.5 0.3
v 0.5 0.5 -0.1
v 0.5 0.9 0.3
v 0.5 0.9 -0.1
v 0.5 1 0.3
v 0.5 1 -0.1
v 0.5 1.3 0.3
v 0.5 1.3 -0.1
v 0.5 1.4 0.3
v 0.5 1.4 -0.1
v 0.5 1.7 0.3
v 0.5 1.7 -0.1
v 0.5 1.8 0.3
v 0.5 1.8 0
v 0.5 2.1 0.3
v 0.5 2.1 0
v -0.5 1 0.3
v -0.5 1 -0.1
v -0.5 1.3 0.3
v -0.5 1.3 -0.1
v -0.5 1.4 0.3
v -0.5 1.4 0.2
v -0.5 1.7 0.3
v -0.5 1.7 0.2
v -0.5 1.8 0.3
v -0.5 1.8 0
v -0.5 2.1 0.3
v -0.5 2.1 0
v -0.4 1.4 0.2
v -0.4 1.4 0
v -0.4 1.6 0
v -0.4 1.6 -0.1
v -0.4 1.7 0.2
v -0.4 1.7 -0.1
v -0.3 1.4 0
v -0.3 1.4 -0.1
v -0.3 1.6 0
v -0.3 1.6 -0.1
v -0.2 1.8 0.2
v -0.2 1.8 0
v -0.2 2 0.2
v -0.2 2 0
v -5.96046e-008 1 0.1
v -5.96046e-008 1 -0.1
v -5.96046e-008 1.2 0.1
v -5.96046e-008 1.2 -0.1
v 0.1 0.1 0
v 0.1 0.1 -0.1
v 0.1 0.4 0
v 0.1 0.4 -0.1
v 0.1 0.5 0
v 0.1 0.5 -0.1
v 0.1 0.9 0
v 0.1 0.9 -0.1
v 0.2 0.1 0.3
v 0.2 0.1 0
v 0.2 0.4 0.3
v 0.2 0.4 0
v 0.2 0.5 0.3
v 0.2 0.5 0.2
v 0.2 0.7 0.2
v 0.2 0.7 0
v 0.2 0.9 0.3
v 0.2 0.9 0
v 0.2 1 0.3
v 0.2 1 0.1
v 0.2 1.1 0.1
v 0.2 1.1 0
v 0.2 1.3 0.3
v 0.2 1.3 0
v 0.2 1.4 0.3
v 0.2 1.4 0
v 0.2 1.6 0
v 0.2 1.7 0.3
v 0.2 1.7 0
v 0.2 2 0.3
v 0.2 2 0
v 0.2 2.1 0.3
v 0.2 2.1 0
v 0.3 1 0.1
v 0.3 1 -0.1
v 0.3 1.1 0.1
v 0.3 1.1 -0.1
v 0.3 1.4 0
v 0.3 1.4 -0.1
v 0.3 1.6 0
v 0.3 1.6 -0.1
v 0.4 0.5 0.2
v 0.4 0.5 -0.1
v 0.4 0.7 0.2
v 0.4 0.7 -0.1
v 0.4 1.8 0.3
v 0.4 1.8 0
v 0.4 2 0.3
v 0.4 2 0
v 0.6 0 0.3
v 0.6 0 -0.2
v 0.6 2.2 0.3
v 0.6 2.2 -0.2
v -0.6 0 0.3
v -0.6 2.2 0.3
v -0.5 0.1 0.3
v -0.5 0.4 0.3
v -0.5 0.5 0.3
v -0.5 0.9 0.3
v -0.5 1 0.3
v -0.5 1.3 0.3
v -0.5 1.4 0.3
v -0.5 1.7 0.3
v -0.5 1.8 0.3
v -0.5 2.1 0.3
v -0.3 0.2 0.3
v -0.3 0.3 0.3
v -0.3 0.6 0.3
v -0.3 0.7 0.3
v -0.1 0.2 0.3
v -0.1 0.3 0.3
v -0.1 0.6 0.3
v -0.1 0.7 0.3
v 0.1 0.1 0.3
v 0.1 0.4 0.3
v 0.1 0.5 0.3
v 0.1 0.9 0.3
v 0.1 1 0.3
v 0.1 1.3 0.3
v 0.1 1.4 0.3
v 0.1 1.7 0.3
v 0.1 1.8 0.3
v 0.1 2.1 0.3
v 0.2 0.1 0.3
v 0.2 0.4 0.3
v 0.2 0.5 0.3
v 0.2 0.9 0.3
v 0.2 1 0.3
v 0.2 1.3 0.3
v 0.2 1.4 0.3
v 0.2 1.7 0.3
v 0.2 1.8 0.3
v 0.2 2 0.3
v 0.2 2.1 0.3
v 0.4 1.8 0.3
v 0.4 2 0.3
v 0.5 0.1 0.3
v 0.5 0.4 0.3
v 0.5 0.5 0.3
v 0.5 0.9 0.3
v 0.5 1 0.3
v 0.5 1.3 0.3
v 0.5 1.4 0.3
v 0.5 1.7 0.3
v 0.5 1.8 0.3
v 0.5 2.1 0.3
v 0.6 0 0.3
v 0.6 2.2 0.3
v -0.5 1.4 0.2
v -0.5 1.7 0.2
v -0.4 1.4 0.2
v -0.4 1.7 0.2
v -0.4 1.8 0.2
v -0.4 2 0.2
v -0.2 1.8 0.2
v -0.2 2 0.2
v -5.96046e-008 1.4 0.2
v -5.96046e-008 1.6 0.2
v 0.1 1.4 0.2
v 0.1 1.6 0.2
v 0.2 0.5 0.2
v 0.2 0.7 0.2
v 0.4 0.1 0.2
v 0.4 0.3 0.2
v 0.4 0.5 0.2
v 0.4 0.7 0.2
v 0.5 0.1 0.2
v 0.5 0.3 0.2
v -0.3 1 0.1
v -0.3 1.2 0.1
v -5.96046e-008 1 0.1
v -5.96046e-008 1.2 0.1
v 0.2 1 0.1
v 0.2 1.1 0.1
v 0.3 1 0.1
v 0.3 1.1 0.1
v -0.5 1.8 0
v -0.5 2.1 0
v -0.4 1.4 0
v -0.4 1.6 0
v -0.4 1.8 0
v -0.4 2 0
v -0.3 1.4 0
v -0.3 1.6 0
v -0.2 1.8 0
v -0.2 2 0
v 0.1 1.8 0
v 0.1 2.1 0
v 0.2 1.4 0
v 0.2 1.6 0
v 0.2 2 0
v 0.2 2.1 0
v 0.3 1.4 0
v 0.3 1.6 0
v 0.4 1.8 0
v 0.4 2 0
v 0.5 1.8 0
v 0.5 2.1 0
v -0.5 1 -0.1
v -0.5 1.3 -0.1
v -0.4 1.6 -0.1
v -0.4 1.7 -0.1
v -0.3 1 -0.1
v -0.3 1.2 -0.1
v -0.3 1.4 -0.1
v -0.3 1.6 -0.1
v -5.96046e-008 1 -0.1
v -5.96046e-008 1.2 -0.1
v -5.96046e-008 1.4 -0.1
v -5.96046e-008 1.6 -0.1
v 0.1 0.1 -0.1
v 0.1 0.4 -0.1
v 0.1 0.5 -0.1
v 0.1 0.9 -0.1
v 0.2 0.5 -0.1
v 0.2 0.7 -0.1
v 0.2 1 -0.1
v 0.2 1.1 -0.1
v 0.2 1.6 -0.1
v 0.3 1 -0.1
v 0.3 1.1 -0.1
v 0.3 1.4 -0.1
v 0.3 1.6 -0.1
v 0.4 0.1 -0.1
v 0.4 0.3 -0.1
v 0.4 0.5 -0.1
v 0.4 0.7 -0.1
v 0.5 0.3 -0.1
v 0.5 0.4 -0.1
v 0.5 0.5 -0.1
v 0.5 0.9 -0.1
v 0.5 1 -0.1
v 0.5 1.3 -0.1
v 0.5 1.4 -0.1
v 0.5 1.7 -0.1
v 0.1 0.1 0
v 0.1 0.4 0
v 0.1 0.5 0
v 0.1 0.9 0
v 0.1 1 0
v 0.1 1.3 0
v 0.1 1.6 0
v 0.1 1.7 0
v 0.2 0.1 0
v 0.2 0.4 0
v 0.2 0.5 0
v 0.2 0.7 0
v 0.2 0.9 0
v 0.2 1 0
v 0.2 1.1 0
v 0.2 1.3 0
v 0.2 1.6 0
v 0.2 1.7 0
v -0.6 0 -0.2
v -0.6 2.2 -0.2
v 0.6 0 -0.2
v 0.6 2.2 -0.2
v -0.6 0 0.3
v 0.6 0 0.3
v -0.6 0 -0.2
v 0.6 0 -0.2
v 0.2 0.4 0.3
v 0.5 0.4 0.3
v 0.1 0.4 0
v 0.2 0.4 0
v 0.1 0.4 -0.1
v 0.5 0.4 -0.1
v 0.2 0.9 0.3
v 0.5 0.9 0.3
v 0.1 0.9 0
v 0.2 0.9 0
v 0.1 0.9 -0.1
v 0.5 0.9 -0.1
v -0.5 1.3 0.3
v 0.1 1.3 0.3
v 0.2 1.3 0.3
v 0.5 1.3 0.3
v 0.1 1.3 0
v 0.2 1.3 0
v -0.5 1.3 -0.1
v 0.5 1.3 -0.1
v -0.5 1.7 0.3
v 0.1 1.7 0.3
v 0.2 1.7 0.3
v 0.5 1.7 0.3
v -0.5 1.7 0.2
v -0.4 1.7 0.2
v 0.1 1.7 0
v 0.2 1.7 0
v -0.4 1.7 -0.1
v 0.5 1.7 -0.1
v -0.5 2.1 0.3
v 0.1 2.1 0.3
v 0.2 2.1 0.3
v 0.5 2.1 0.3
v -0.5 2.1 0
v 0.1 2.1 0
v 0.2 2.1 0
v 0.5 2.1 0
v 0.2 0.1 0.3
v 0.5 0.1 0.3
v 0.4 0.1 0.2
v 0.5 0.1 0.2
v 0.1 0.1 0
v 0.2 0.1 0
v 0.1 0.1 -0.1
v 0.4 0.1 -0.1
v 0.4 0.3 0.2
v 0.5 0.3 0.2
v 0.4 0.3 -0.1
v 0.5 0.3 -0.1
v 0.2 0.5 0.3
v 0.5 0.5 0.3
v 0.2 0.5 0.2
v 0.4 0.5 0.2
v 0.1 0.5 0
v 0.2 0.5 0
v 0.1 0.5 -0.1
v 0.2 0.5 -0.1
v 0.4 0.5 -0.1
v 0.5 0.5 -0.1
v 0.2 0.7 0.2
v 0.4 0.7 0.2
v 0.2 0.7 0
v 0.2 0.7 -0.1
v 0.4 0.7 -0.1
v -0.5 1 0.3
v 0.1 1 0.3
v 0.2 1 0.3
v 0.5 1 0.3
v -0.3 1 0.1
v -5.96046e-008 1 0.1
v 0.2 1 0.1
v 0.3 1 0.1
v 0.1 1 0
v 0.2 1 0
v -0.5 1 -0.1
v -0.3 1 -0.1
v -5.96046e-008 1 -0.1
v 0.2 1 -0.1
v 0.3 1 -0.1
v 0.5 1 -0.1
v 0.2 1.1 0.1
v 0.3 1.1 0.1
v 0.2 1.1 0
v 0.2 1.1 -0.1
v 0.3 1.1 -0.1
v -0.3 1.2 0.1
v -5.96046e-008 1.2 0.1
v -0.3 1.2 -0.1
v -5.96046e-008 1.2 -0.1
v -0.5 1.4 0.3
v 0.1 1.4 0.3
v 0.2 1.4 0.3
v 0.5 1.4 0.3
v -0.5 1.4 0.2
v -0.4 1.4 0.2
v -5.96046e-008 1.4 0.2
v 0.1 1.4 0.2
v -0.4 1.4 0
v -0.3 1.4 0
v 0.2 1.4 0
v 0.3 1.4 0
v -0.3 1.4 -0.1
v -5.96046e-008 1.4 -0.1
v 0.3 1.4 -0.1
v 0.5 1.4 -0.1
v -5.96046e-008 1.6 0.2
v 0.1 1.6 0.2
v -0.4 1.6 0
v -0.3 1.6 0
v 0.1 1.6 0
v 0.2 1.6 0
v 0.3 1.6 0
v -0.4 1.6 -0.1
v -0.3 1.6 -0.1
v -5.96046e-008 1.6 -0.1
v 0.2 1.6 -0.1
v 0.3 1.6 -0.1
v -0.5 1.8 0.3
v 0.1 1.8 0.3
v 0.4 1.8 0.3
v 0.5 1.8 0.3
v -0.4 1.8 0.2
v -0.2 1.8 0.2
v -0.5 1.8 0
v -0.4 1.8 0
v -0.2 1.8 0
v 0.1 1.8 0
v 0.4 1.8 0
v 0.5 1.8 0
v 0.2 2 0.3
v 0.4 2 0.3
v -0.4 2 0.2
v -0.2 2 0.2
v -0.4 2 0
v -0.2 2 0
v 0.2 2 0
v 0.4 2 0
v -0.6 2.2 0.3
v 0.6 2.2 0.3
v -0.6 2.2 -0.2
v 0.6 2.2 -0.2

# faces
f 3/5/1 2/5/1 1/5/1
f 4/5/1 2/5/1 3/5/1
f 7/1/1 6/1/1 5/1/1
f 8/1/1 6/1/1 7/1/1
f 11/4/1 10/4/1 9/4/1
f 12/4/1 10/4/1 11/4/1
f 15/6/1 14/6/1 13/6/1
f 16/6/1 14/6/1 15/6/1
f 19/5/1 18/5/1 17/5/1
f 20/5/1 18/5/1 19/5/1
f 23/5/1 22/5/1 21/5/1
f 25/5/1 23/5/1 21/5/1
f 25/5/1 24/5/1 23/5/1
f 26/5/1 24/5/1 25/5/1
f 29/5/1 28/5/1 27/5/1
f 30/5/1 28/5/1 29/5/1
f 33/4/1 32/4/1 31/4/1
f 34/4/1 32/4/1 33/4/1
f 37/1/1 36/1/1 35/1/1
f 38/1/1 36/1/1 37/1/1
f 41/4/1 40/4/1 39/4/1
f 42/4/1 40/4/1 41/4/1
f 45/5/1 44/5/1 43/5/1
f 47/5/1 45/5/1 43/5/1
f 47/5/1 46/5/1 45/5/1
f 48/5/1 46/5/1 47/5/1
f 51/5/1 50/5/1 49/5/1
f 52/5/1 50/5/1 51/5/1
f 55/5/1 54/5/1 53/5/1
f 56/5/1 54/5/1 55/5/1
f 59/5/1 58/5/1 57/5/1
f 60/5/1 58/5/1 59/5/1
f 63/5/1 62/5/1 61/5/1
f 64/5/1 62/5/1 63/5/1
f 65/5/2 66/5/2 67/5/2
f 67/5/2 66/5/2 68/5/2
f 69/5/2 70/5/2 71/5/2
f 71/5/2 70/5/2 72/5/2
f 73/5/2 74/5/2 75/5/2
f 75/5/2 74/5/2 76/5/2
f 77/6/2 78/6/2 79/6/2
f 77/6/2 79/6/2 81/6/2
f 79/6/2 80/6/2 81/6/2
f 81/6/2 80/6/2 82/6/2
f 83/1/2 84/1/2 85/1/2
f 85/1/2 84/1/2 86/1/2
f 87/1/2 88/1/2 89/1/2
f 89/1/2 88/1/2 90/1/2
f 91/4/2 92/4/2 93/4/2
f 93/4/2 92/4/2 94/4/2
f 95/2/2 96/2/2 97/2/2
f 97/2/2 96/2/2 98/2/2
f 99/2/2 100/2/2 101/2/2
f 101/2/2 100/2/2 102/2/2
f 103/5/2 104/5/2 105/5/2
f 105/5/2 104/5/2 106/5/2
f 107/5/2 108/5/2 109/5/2
f 107/5/2 109/5/2 111/5/2
f 109/5/2 110/5/2 111/5/2
f 111/5/2 110/5/2 112/5/2
f 113/5/2 114/5/2 115/5/2
f 113/5/2 115/5/2 117/5/2
f 115/5/2 116/5/2 117/5/2
f 117/5/2 116/5/2 118/5/2
f 119/5/2 120/5/2 121/5/2
f 119/5/2 121/5/2 122/5/2
f 122/5/2 121/5/2 123/5/2
f 124/5/2 125/5/2 126/5/2
f 126/5/2 125/5/2 127/5/2
f 128/1/2 129/1/2 130/1/2
f 130/1/2 129/1/2 131/1/2
f 132/1/2 133/1/2 134/1/2
f 134/1/2 133/1/2 135/1/2
f 136/4/2 137/4/2 138/4/2
f 138/4/2 137/4/2 139/4/2
f 140/1/2 141/1/2 142/1/2
f 142/1/2 141/1/2 143/1/2
f 144/5/2 145/5/2 146/5/2
f 146/5/2 145/5/2 147/5/2
f 150/5/3 149/5/3 148/5/3
f 151/5/3 149/5/3 150/5/3
f 152/5/3 149/5/3 151/5/3
f 153/5/3 149/5/3 152/5/3
f 154/5/3 149/5/3 153/5/3
f 155/5/3 149/5/3 154/5/3
f 156/5/3 149/5/3 155/5/3
f 157/5/3 149/5/3 156/5/3
f 158/5/3 149/5/3 157/5/3
f 159/5/3 149/5/3 158/5/3
f 160/2/3 151/2/3 150/2/3
f 161/2/3 151/2/3 160/2/3
f 162/2/3 153/2/3 152/2/3
f 163/2/3 153/2/3 162/2/3
f 164/2/3 160/2/3 150/2/3
f 164/3/3 161/3/3 160/3/3
f 165/2/3 151/2/3 161/2/3
f 165/3/3 161/3/3 164/3/3
f 166/3/3 163/3/3 162/3/3
f 166/2/3 162/2/3 152/2/3
f 167/2/3 153/2/3 163/2/3
f 167/3/3 163/3/3 166/3/3
f 168/5/3 150/5/3 148/5/3
f 168/2/3 164/2/3 150/2/3
f 168/2/3 165/2/3 164/2/3
f 169/5/3 152/5/3 151/5/3
f 169/2/3 165/2/3 168/2/3
f 169/2/3 151/2/3 165/2/3
f 170/2/3 167/2/3 166/2/3
f 170/5/3 152/5/3 169/5/3
f 170/2/3 166/2/3 152/2/3
f 171/2/3 153/2/3 167/2/3
f 171/2/3 167/2/3 170/2/3
f 171/5/3 154/5/3 153/5/3
f 172/5/3 154/5/3 171/5/3
f 173/5/3 156/5/3 155/5/3
f 174/5/3 156/5/3 173/5/3
f 175/5/3 158/5/3 157/5/3
f 176/5/3 158/5/3 175/5/3
f 177/5/3 149/5/3 159/5/3
f 178/5/3 170/5/3 169/5/3
f 178/5/3 177/5/3 176/5/3
f 178/5/3 176/5/3 175/5/3
f 178/5/3 168/5/3 148/5/3
f 178/5/3 175/5/3 174/5/3
f 178/5/3 169/5/3 168/5/3
f 178/5/3 173/5/3 172/5/3
f 178/5/3 172/5/3 171/5/3
f 178/5/3 171/5/3 170/5/3
f 178/5/3 174/5/3 173/5/3
f 179/5/3 177/5/3 178/5/3
f 180/5/3 177/5/3 179/5/3
f 181/5/3 177/5/3 180/5/3
f 182/5/3 177/5/3 181/5/3
f 183/5/3 177/5/3 182/5/3
f 184/5/3 177/5/3 183/5/3
f 185/5/3 177/5/3 184/5/3
f 186/5/3 177/5/3 185/5/3
f 187/5/3 177/5/3 186/5/3
f 188/5/3 149/5/3 177/5/3
f 188/5/3 177/5/3 187/5/3
f 189/1/3 187/1/3 186/1/3
f 189/5/3 186/5/3 185/5/3
f 190/1/3 187/1/3 189/1/3
f 191/5/3 178/5/3 148/5/3
f 192/5/3 180/5/3 179/5/3
f 193/5/3 180/5/3 192/5/3
f 194/5/3 182/5/3 181/5/3
f 195/5/3 182/5/3 194/5/3
f 196/5/3 184/5/3 183/5/3
f 197/5/3 184/5/3 196/5/3
f 198/5/3 189/5/3 185/5/3
f 199/5/3 189/5/3 198/5/3
f 200/5/3 149/5/3 188/5/3
f 201/5/3 199/5/3 198/5/3
f 201/5/3 200/5/3 199/5/3
f 201/5/3 198/5/3 197/5/3
f 201/5/3 195/5/3 194/5/3
f 201/5/3 191/5/3 148/5/3
f 201/5/3 196/5/3 195/5/3
f 201/5/3 193/5/3 192/5/3
f 201/5/3 194/5/3 193/5/3
f 201/5/3 197/5/3 196/5/3
f 201/5/3 192/5/3 191/5/3
f 202/5/3 149/5/3 200/5/3
f 202/5/3 200/5/3 201/5/3
f 205/6/3 204/6/3 203/6/3
f 206/6/3 204/6/3 205/6/3
f 209/1/3 208/1/3 207/1/3
f 210/1/3 208/1/3 209/1/3
f 213/6/3 212/6/3 211/6/3
f 214/6/3 212/6/3 213/6/3
f 219/4/3 216/4/3 215/4/3
f 220/4/3 216/4/3 219/4/3
f 221/4/3 218/4/3 217/4/3
f 222/4/3 218/4/3 221/4/3
f 225/4/3 224/4/3 223/4/3
f 226/4/3 224/4/3 225/4/3
f 229/1/3 228/1/3 227/1/3
f 230/1/3 228/1/3 229/1/3
f 235/5/3 232/5/3 231/5/3
f 236/5/3 232/5/3 235/5/3
f 237/1/3 234/1/3 233/1/3
f 238/1/3 234/1/3 237/1/3
f 240/5/3 232/5/3 236/5/3
f 241/5/3 240/5/3 239/5/3
f 242/5/3 232/5/3 240/5/3
f 242/5/3 240/5/3 241/5/3
f 247/1/3 244/1/3 243/1/3
f 248/1/3 244/1/3 247/1/3
f 250/5/3 246/5/3 245/5/3
f 251/5/3 250/5/3 249/5/3
f 252/5/3 246/5/3 250/5/3
f 252/5/3 250/5/3 251/5/3
f 257/5/3 254/5/3 253/5/3
f 258/5/3 254/5/3 257/5/3
f 260/5/3 256/5/3 255/5/3
f 262/5/3 254/5/3 258/5/3
f 263/5/3 260/5/3 259/5/3
f 264/5/3 256/5/3 260/5/3
f 264/5/3 260/5/3 263/5/3
f 269/5/3 268/5/3 267/5/3
f 270/5/3 268/5/3 269/5/3
f 271/5/3 262/5/3 261/5/3
f 272/5/3 262/5/3 271/5/3
f 273/5/3 256/5/3 264/5/3
f 275/5/3 262/5/3 272/5/3
f 277/5/3 256/5/3 273/5/3
f 278/5/3 266/5/3 265/5/3
f 279/5/3 266/5/3 278/5/3
f 281/5/3 268/5/3 270/5/3
f 282/5/3 266/5/3 279/5/3
f 283/5/3 266/5/3 282/5/3
f 284/5/3 281/5/3 280/5/3
f 285/5/3 268/5/3 281/5/3
f 285/5/3 281/5/3 284/5/3
f 286/5/3 275/5/3 274/5/3
f 287/5/3 254/5/3 262/5/3
f 287/5/3 275/5/3 286/5/3
f 287/5/3 262/5/3 275/5/3
f 288/5/3 277/5/3 276/5/3
f 289/5/3 256/5/3 277/5/3
f 289/5/3 277/5/3 288/5/3
f 290/5/4 291/5/4 298/5/4
f 298/5/4 291/5/4 299/5/4
f 292/5/4 293/5/4 300/5/4
f 300/5/4 293/5/4 301/5/4
f 301/5/4 293/5/4 302/5/4
f 294/5/4 295/5/4 303/5/4
f 303/5/4 295/5/4 304/5/4
f 304/5/4 295/5/4 305/5/4
f 296/5/4 297/5/4 306/5/4
f 306/5/4 297/5/4 307/5/4
f 308/5/4 309/5/4 310/5/4
f 310/5/4 309/5/4 311/5/4
f 314/5/5 313/5/5 312/5/5
f 315/5/5 313/5/5 314/5/5
f 319/5/5 317/5/5 316/5/5
f 320/5/5 319/5/5 318/5/5
f 321/5/5 317/5/5 319/5/5
f 321/5/5 319/5/5 320/5/5
f 325/5/5 323/5/5 322/5/5
f 326/5/5 325/5/5 324/5/5
f 327/5/5 323/5/5 325/5/5
f 327/5/5 325/5/5 326/5/5
f 332/5/5 329/5/5 328/5/5
f 333/5/5 331/5/5 330/5/5
f 334/5/5 332/5/5 328/5/5
f 334/5/5 333/5/5 332/5/5
f 335/5/5 331/5/5 333/5/5
f 335/5/5 333/5/5 334/5/5
f 340/5/5 337/5/5 336/5/5
f 341/5/5 337/5/5 340/5/5
f 342/5/5 337/5/5 341/5/5
f 343/5/5 339/5/5 338/5/5
f 344/5/5 342/5/5 341/5/5
f 344/5/5 343/5/5 342/5/5
f 345/5/5 339/5/5 343/5/5
f 345/5/5 343/5/5 344/5/5
f 350/5/5 347/5/5 346/5/5
f 351/5/5 347/5/5 350/5/5
f 352/5/5 349/5/5 348/5/5
f 353/5/5 349/5/5 352/5/5
f 354/5/6 355/5/6 356/5/6
f 356/5/6 355/5/6 357/5/6
f 354/5/6 356/5/6 359/5/6
f 358/5/6 359/5/6 360/5/6
f 359/5/6 356/5/6 361/5/6
f 360/5/6 359/5/6 361/5/6
f 362/4/6 363/4/6 364/4/6
f 364/4/6 363/4/6 365/4/6
f 366/5/6 367/5/6 368/5/6
f 368/5/6 367/5/6 369/5/6
f 370/5/6 371/5/6 372/5/6
f 372/5/6 371/5/6 373/5/6
f 369/5/6 367/5/6 374/5/6
f 374/5/6 367/5/6 375/5/6
f 376/4/6 377/4/6 378/4/6
f 378/4/6 377/4/6 379/4/6
f 379/4/6 377/4/6 380/4/6
f 381/5/6 382/5/6 385/5/6
f 385/5/6 382/5/6 386/5/6
f 383/5/6 384/5/6 387/5/6
f 387/5/6 384/5/6 388/5/6
f 386/5/6 382/5/6 389/5/6
f 381/5/6 385/5/6 391/5/6
f 391/5/6 385/5/6 392/5/6
f 389/5/6 390/5/6 393/5/6
f 386/5/6 389/5/6 393/5/6
f 393/5/6 390/5/6 394/5/6
f 388/5/6 384/5/6 395/5/6
f 395/5/6 384/5/6 396/5/6
f 397/1/6 398/1/6 399/1/6
f 399/1/6 398/1/6 400/1/6
f 400/1/6 398/1/6 401/1/6
f 402/4/6 403/4/6 404/4/6
f 404/4/6 403/4/6 405/4/6
f 406/5/6 407/5/6 410/5/6
f 410/5/6 407/5/6 411/5/6
f 411/5/6 407/5/6 412/5/6
f 412/5/6 407/5/6 413/5/6
f 411/5/6 412/5/6 414/5/6
f 414/5/6 412/5/6 415/5/6
f 408/5/6 409/5/6 416/5/6
f 416/5/6 409/5/6 417/5/6
f 415/5/6 412/5/6 418/5/6
f 418/5/6 412/5/6 419/5/6
f 417/5/6 409/5/6 420/5/6
f 420/5/6 409/5/6 421/5/6
f 422/6/6 423/6/6 426/6/6
f 424/1/6 425/1/6 429/1/6
f 429/1/6 425/1/6 430/1/6
f 422/6/6 426/6/6 431/6/6
f 426/6/6 427/6/6 431/6/6
f 427/1/6 428/1/6 432/1/6
f 431/6/6 427/6/6 432/6/6
f 432/1/6 428/1/6 433/1/6
f 434/5/6 435/5/6 438/5/6
f 438/5/6 435/5/6 439/5/6
f 434/5/6 438/5/6 440/5/6
f 440/5/6 438/5/6 441/5/6
f 439/5/6 435/5/6 442/5/6
f 442/5/6 435/5/6 443/5/6
f 436/5/6 437/5/6 444/5/6
f 444/5/6 437/5/6 445/5/6
f 448/1/6 449/1/6 450/1/6
f 450/1/6 449/1/6 451/1/6
f 446/1/6 447/1/6 452/1/6
f 452/1/6 447/1/6 453/1/6
f 454/5/6 455/5/6 456/5/6
f 456/5/6 455/5/6 457/5/6
