# MagicaVoxel @ Ephtracy

# group
o 

# material
mtllib Laptop.mtl
usemtl palette

# normals
vn -1 0 0
vn 1 0 0
vn 0 0 1
vn 0 0 -1
vn 0 -1 0
vn 0 1 0

# texcoords
vt 0.638672 0.5
vt 0.865234 0.5

# verts
v -0.2 0 0.2
v -0.2 0 0.1
v -0.2 0 -0.1
v -0.2 0 -0.2
v -0.2 0.1 0.2
v -0.2 0.1 0.1
v -0.2 0.1 -0.1
v -0.2 0.4 -0.1
v -0.2 0.4 -0.2
v 0.2 0 0.2
v 0.2 0 0.1
v 0.2 0 -0.1
v 0.2 0 -0.2
v 0.2 0.1 0.2
v 0.2 0.1 0.1
v 0.2 0.1 -0.1
v 0.2 0.4 -0.1
v 0.2 0.4 -0.2
v -0.2 0 0.2
v -0.2 0.1 0.2
v 0.2 0 0.2
v 0.2 0.1 0.2
v -0.2 0.1 -0.1
v -0.2 0.4 -0.1
v 0.2 0.1 -0.1
v 0.2 0.4 -0.1
v -0.2 0 -0.2
v -0.2 0.4 -0.2
v 0.2 0 -0.2
v 0.2 0.4 -0.2
v -0.2 0 0.2
v 0.2 0 0.2
v -0.2 0 0.1
v 0.2 0 0.1
v -0.2 0 -0.1
v 0.2 0 -0.1
v -0.2 0 -0.2
v 0.2 0 -0.2
v -0.2 0.1 0.2
v 0.2 0.1 0.2
v -0.2 0.1 0.1
v 0.2 0.1 0.1
v -0.2 0.1 -0.1
v 0.2 0.1 -0.1
v -0.2 0.4 -0.1
v 0.2 0.4 -0.1
v -0.2 0.4 -0.2
v 0.2 0.4 -0.2

# faces
f 5/2/1 2/2/1 1/2/1
f 6/1/1 3/1/1 2/1/1
f 6/2/1 2/2/1 5/2/1
f 7/2/1 4/2/1 3/2/1
f 7/1/1 3/1/1 6/1/1
f 8/2/1 4/2/1 7/2/1
f 9/2/1 4/2/1 8/2/1
f 10/2/2 11/2/2 14/2/2
f 11/1/2 12/1/2 15/1/2
f 14/2/2 11/2/2 15/2/2
f 12/2/2 13/2/2 16/2/2
f 15/1/2 12/1/2 16/1/2
f 16/2/2 13/2/2 17/2/2
f 17/2/2 13/2/2 18/2/2
f 21/2/3 20/2/3 19/2/3
f 22/2/3 20/2/3 21/2/3
f 25/2/3 24/2/3 23/2/3
f 26/2/3 24/2/3 25/2/3
f 27/2/4 28/2/4 29/2/4
f 29/2/4 28/2/4 30/2/4
f 33/2/5 32/2/5 31/2/5
f 34/2/5 32/2/5 33/2/5
f 35/1/5 34/1/5 33/1/5
f 36/1/5 34/1/5 35/1/5
f 37/2/5 36/2/5 35/2/5
f 38/2/5 36/2/5 37/2/5
f 39/2/6 40/2/6 41/2/6
f 41/2/6 40/2/6 42/2/6
f 41/1/6 42/1/6 43/1/6
f 43/1/6 42/1/6 44/1/6
f 45/2/6 46/2/6 47/2/6
f 47/2/6 46/2/6 48/2/6
