# MagicaVoxel @ Ephtracy

# group
o 

# material
mtllib Shower.mtl
usemtl palette

# normals
vn -1 0 0
vn 1 0 0
vn 0 0 1
vn 0 0 -1
vn 0 -1 0
vn 0 1 0

# texcoords
vt 0.111328 0.5
vt 0.544922 0.5
vt 0.767578 0.5

# verts
v -0.5 0 0.5
v -0.5 0 -0.5
v -0.5 0.2 0.5
v -0.5 0.2 -0.5
v -0.3 1.1 -0.4
v -0.3 1.1 -0.5
v -0.3 1.2 -0.4
v -0.3 1.2 -0.5
v -0.2 1 -0.4
v -0.2 1 -0.5
v -0.2 1.1 -0.4
v -0.2 1.1 -0.5
v -0.2 2.1 0.3
v -0.2 2.1 0
v -0.2 2.2 0.3
v -0.2 2.2 0
v -0.1 1.3 -0.4
v -0.1 1.3 -0.5
v -0.1 2.2 0.2
v -0.1 2.2 0
v -0.1 2.2 -0.4
v -0.1 2.3 0.2
v -0.1 2.3 -0.5
v 0.4 0.1 0.4
v 0.4 0.1 -0.4
v 0.4 0.2 0.4
v 0.4 0.2 -0.4
v -0.4 0.1 0.4
v -0.4 0.1 -0.4
v -0.4 0.2 0.4
v -0.4 0.2 -0.4
v 0.1 1.3 -0.4
v 0.1 1.3 -0.5
v 0.1 2.2 0.2
v 0.1 2.2 0
v 0.1 2.2 -0.4
v 0.1 2.3 0.2
v 0.1 2.3 -0.5
v 0.2 1 -0.4
v 0.2 1 -0.5
v 0.2 1.1 -0.4
v 0.2 1.1 -0.5
v 0.2 2.1 0.3
v 0.2 2.1 0
v 0.2 2.2 0.3
v 0.2 2.2 0
v 0.3 1.1 -0.4
v 0.3 1.1 -0.5
v 0.3 1.2 -0.4
v 0.3 1.2 -0.5
v 0.5 0 0.5
v 0.5 0 -0.5
v 0.5 0.2 0.5
v 0.5 0.2 -0.5
v -0.5 0 0.5
v -0.5 0.2 0.5
v 0.5 0 0.5
v 0.5 0.2 0.5
v -0.2 2.1 0.3
v -0.2 2.2 0.3
v 0.2 2.1 0.3
v 0.2 2.2 0.3
v -0.1 2.2 0.2
v -0.1 2.3 0.2
v 0.1 2.2 0.2
v 0.1 2.3 0.2
v -0.4 0.1 -0.4
v -0.4 0.2 -0.4
v -0.3 1.1 -0.4
v -0.3 1.2 -0.4
v -0.2 1 -0.4
v -0.2 1.1 -0.4
v -0.2 1.2 -0.4
v -0.1 1.3 -0.4
v -0.1 2.2 -0.4
v 0.1 1.3 -0.4
v 0.1 2.2 -0.4
v 0.2 1 -0.4
v 0.2 1.1 -0.4
v 0.2 1.2 -0.4
v 0.3 1.1 -0.4
v 0.3 1.2 -0.4
v 0.4 0.1 -0.4
v 0.4 0.2 -0.4
v -0.4 0.1 0.4
v -0.4 0.2 0.4
v 0.4 0.1 0.4
v 0.4 0.2 0.4
v -0.2 2.1 0
v -0.2 2.2 0
v -0.1 2.2 0
v 0.1 2.2 0
v 0.2 2.1 0
v 0.2 2.2 0
v -0.5 0 -0.5
v -0.5 0.2 -0.5
v -0.3 1.1 -0.5
v -0.3 1.2 -0.5
v -0.2 1 -0.5
v -0.2 1.1 -0.5
v -0.2 1.2 -0.5
v -0.1 1.3 -0.5
v -0.1 2.3 -0.5
v 0.1 1.3 -0.5
v 0.1 2.3 -0.5
v 0.2 1 -0.5
v 0.2 1.1 -0.5
v 0.2 1.2 -0.5
v 0.3 1.1 -0.5
v 0.3 1.2 -0.5
v 0.5 0 -0.5
v 0.5 0.2 -0.5
v -0.5 0 0.5
v 0.5 0 0.5
v 0.1 0 -0.1
v 0.3 0 -0.1
v 0.1 0 -0.3
v 0.3 0 -0.3
v -0.5 0 -0.5
v 0.5 0 -0.5
v -0.2 1 -0.4
v 0.2 1 -0.4
v -0.2 1 -0.5
v 0.2 1 -0.5
v -0.3 1.1 -0.4
v -0.2 1.1 -0.4
v 0.2 1.1 -0.4
v 0.3 1.1 -0.4
v -0.3 1.1 -0.5
v -0.2 1.1 -0.5
v 0.2 1.1 -0.5
v 0.3 1.1 -0.5
v -0.1 1.3 -0.4
v 0.1 1.3 -0.4
v -0.1 1.3 -0.5
v 0.1 1.3 -0.5
v -0.2 2.1 0.3
v 0.2 2.1 0.3
v -0.2 2.1 0
v 0.2 2.1 0
v -0.1 2.2 0
v 0.1 2.2 0
v -0.1 2.2 -0.4
v 0.1 2.2 -0.4
v -0.4 0.1 0.4
v 0.4 0.1 0.4
v 0.1 0.1 -0.1
v 0.3 0.1 -0.1
v 0.1 0.1 -0.3
v 0.3 0.1 -0.3
v -0.4 0.1 -0.4
v 0.4 0.1 -0.4
v -0.5 0.2 0.5
v 0.5 0.2 0.5
v -0.4 0.2 0.4
v 0.4 0.2 0.4
v -0.4 0.2 -0.4
v 0.4 0.2 -0.4
v -0.5 0.2 -0.5
v 0.5 0.2 -0.5
v -0.3 1.2 -0.4
v -0.2 1.2 -0.4
v 0.2 1.2 -0.4
v 0.3 1.2 -0.4
v -0.3 1.2 -0.5
v -0.2 1.2 -0.5
v 0.2 1.2 -0.5
v 0.3 1.2 -0.5
v -0.2 2.2 0.3
v 0.2 2.2 0.3
v -0.1 2.2 0.2
v 0.1 2.2 0.2
v -0.2 2.2 0
v -0.1 2.2 0
v 0.1 2.2 0
v 0.2 2.2 0
v -0.1 2.3 0.2
v 0.1 2.3 0.2
v -0.1 2.3 -0.5
v 0.1 2.3 -0.5

# faces
f 3/1/1 2/1/1 1/1/1
f 4/1/1 2/1/1 3/1/1
f 7/3/1 6/3/1 5/3/1
f 8/3/1 6/3/1 7/3/1
f 11/2/1 10/2/1 9/2/1
f 12/2/1 10/2/1 11/2/1
f 15/2/1 14/2/1 13/2/1
f 16/2/1 14/2/1 15/2/1
f 21/2/1 18/2/1 17/2/1
f 22/2/1 20/2/1 19/2/1
f 22/2/1 21/2/1 20/2/1
f 23/2/1 18/2/1 21/2/1
f 23/2/1 21/2/1 22/2/1
f 26/1/1 25/1/1 24/1/1
f 27/1/1 25/1/1 26/1/1
f 28/1/2 29/1/2 30/1/2
f 30/1/2 29/1/2 31/1/2
f 32/2/2 33/2/2 36/2/2
f 34/2/2 35/2/2 37/2/2
f 35/2/2 36/2/2 37/2/2
f 36/2/2 33/2/2 38/2/2
f 37/2/2 36/2/2 38/2/2
f 39/2/2 40/2/2 41/2/2
f 41/2/2 40/2/2 42/2/2
f 43/2/2 44/2/2 45/2/2
f 45/2/2 44/2/2 46/2/2
f 47/3/2 48/3/2 49/3/2
f 49/3/2 48/3/2 50/3/2
f 51/1/2 52/1/2 53/1/2
f 53/1/2 52/1/2 54/1/2
f 57/1/3 56/1/3 55/1/3
f 58/1/3 56/1/3 57/1/3
f 61/2/3 60/2/3 59/2/3
f 62/2/3 60/2/3 61/2/3
f 65/2/3 64/2/3 63/2/3
f 66/2/3 64/2/3 65/2/3
f 72/3/3 70/3/3 69/3/3
f 73/3/3 70/3/3 72/3/3
f 76/2/3 75/2/3 74/2/3
f 77/2/3 75/2/3 76/2/3
f 78/2/3 72/2/3 71/2/3
f 78/2/3 73/2/3 72/2/3
f 79/2/3 73/2/3 78/2/3
f 80/2/3 73/2/3 79/2/3
f 81/3/3 80/3/3 79/3/3
f 82/3/3 80/3/3 81/3/3
f 83/1/3 68/1/3 67/1/3
f 84/1/3 68/1/3 83/1/3
f 85/1/4 86/1/4 87/1/4
f 87/1/4 86/1/4 88/1/4
f 89/2/4 90/2/4 91/2/4
f 89/2/4 91/2/4 92/2/4
f 89/2/4 92/2/4 93/2/4
f 93/2/4 92/2/4 94/2/4
f 97/3/4 98/3/4 100/3/4
f 100/3/4 98/3/4 101/3/4
f 102/2/4 103/2/4 104/2/4
f 104/2/4 103/2/4 105/2/4
f 99/2/4 100/2/4 106/2/4
f 100/2/4 101/2/4 106/2/4
f 106/2/4 101/2/4 107/2/4
f 107/2/4 101/2/4 108/2/4
f 107/3/4 108/3/4 109/3/4
f 109/3/4 108/3/4 110/3/4
f 95/1/4 96/1/4 111/1/4
f 111/1/4 96/1/4 112/1/4
f 115/1/5 114/1/5 113/1/5
f 116/1/5 114/1/5 115/1/5
f 117/1/5 115/1/5 113/1/5
f 117/2/5 116/2/5 115/2/5
f 118/1/5 114/1/5 116/1/5
f 118/2/5 116/2/5 117/2/5
f 119/1/5 117/1/5 113/1/5
f 119/1/5 118/1/5 117/1/5
f 120/1/5 114/1/5 118/1/5
f 120/1/5 118/1/5 119/1/5
f 123/2/5 122/2/5 121/2/5
f 124/2/5 122/2/5 123/2/5
f 129/3/5 126/3/5 125/3/5
f 130/3/5 126/3/5 129/3/5
f 131/3/5 128/3/5 127/3/5
f 132/3/5 128/3/5 131/3/5
f 135/2/5 134/2/5 133/2/5
f 136/2/5 134/2/5 135/2/5
f 139/2/5 138/2/5 137/2/5
f 140/2/5 138/2/5 139/2/5
f 143/2/5 142/2/5 141/2/5
f 144/2/5 142/2/5 143/2/5
f 145/1/6 146/1/6 147/1/6
f 147/1/6 146/1/6 148/1/6
f 145/1/6 147/1/6 149/1/6
f 147/2/6 148/2/6 149/2/6
f 148/1/6 146/1/6 150/1/6
f 149/2/6 148/2/6 150/2/6
f 145/1/6 149/1/6 151/1/6
f 149/1/6 150/1/6 151/1/6
f 150/1/6 146/1/6 152/1/6
f 151/1/6 150/1/6 152/1/6
f 153/1/6 154/1/6 155/1/6
f 155/1/6 154/1/6 156/1/6
f 153/1/6 155/1/6 157/1/6
f 156/1/6 154/1/6 158/1/6
f 153/1/6 157/1/6 159/1/6
f 157/1/6 158/1/6 159/1/6
f 158/1/6 154/1/6 160/1/6
f 159/1/6 158/1/6 160/1/6
f 161/3/6 162/3/6 165/3/6
f 162/2/6 163/2/6 166/2/6
f 165/3/6 162/3/6 166/3/6
f 163/3/6 164/3/6 167/3/6
f 166/2/6 163/2/6 167/2/6
f 167/3/6 164/3/6 168/3/6
f 169/2/6 170/2/6 171/2/6
f 171/2/6 170/2/6 172/2/6
f 169/2/6 171/2/6 173/2/6
f 173/2/6 171/2/6 174/2/6
f 172/2/6 170/2/6 175/2/6
f 175/2/6 170/2/6 176/2/6
f 177/2/6 178/2/6 179/2/6
f 179/2/6 178/2/6 180/2/6
