# MagicaVoxel @ Ephtracy

# group
o 

# material
mtllib TV.mtl
usemtl palette

# normals
vn -1 0 0
vn 1 0 0
vn 0 0 1
vn 0 0 -1
vn 0 -1 0
vn 0 1 0

# texcoords
vt 0.638672 0.5
vt 0.892578 0.5
vt 0.990234 0.5

# verts
v -1.2 0 0.1
v -1.2 0 -0.1
v -1.2 0.1 0.1
v -1.2 0.1 0
v -1.2 0.1 -0.1
v -1.2 0.3 0.1
v -1.2 0.3 0
v -1.2 0.3 -0.1
v -1.2 1.6 0.1
v -1.2 1.6 0
v -1.1 0.4 0
v -1.1 0.4 -0.1
v -1.1 1.5 0
v -1.1 1.5 -0.1
v -0.3 0.1 0.1
v -0.3 0.1 0
v -0.3 0.3 0.1
v -0.3 0.3 0
v -0.2 0.3 0
v -0.2 0.3 -0.1
v -0.2 0.4 0
v -0.2 0.4 -0.1
v 0.3 0.1 0.1
v 0.3 0.1 0
v 0.3 0.3 0.1
v 0.3 0.3 0
v 0.3 0.3 -0.1
v 0.3 0.4 0
v 0.3 0.4 -0.1
v 1.1 0.4 0
v 1.1 0.4 -0.1
v 1.1 1.5 0
v 1.1 1.5 -0.1
v 1.2 0 0.1
v 1.2 0 -0.1
v 1.2 0.1 0.1
v 1.2 0.1 0
v 1.2 0.1 -0.1
v 1.2 0.3 0.1
v 1.2 0.3 0
v 1.2 0.3 -0.1
v 1.2 1.6 0.1
v 1.2 1.6 0
v -1.2 0 0.1
v -1.2 0.1 0.1
v -1.2 0.3 0.1
v -1.2 1.6 0.1
v -1.1 0.4 0.1
v -1.1 1.5 0.1
v -0.3 0.1 0.1
v -0.3 0.3 0.1
v 0.3 0.1 0.1
v 0.3 0.3 0.1
v 1.1 0.4 0.1
v 1.1 1.5 0.1
v 1.2 0 0.1
v 1.2 0.1 0.1
v 1.2 0.3 0.1
v 1.2 1.6 0.1
v -1.2 0.1 0
v -1.2 0.3 0
v -0.3 0.1 0
v -0.3 0.3 0
v 0.3 0.1 0
v 0.3 0.3 0
v 1.2 0.1 0
v 1.2 0.3 0
v -1.2 0.3 0
v -1.2 1.6 0
v -1.1 0.4 0
v -1.1 1.5 0
v -0.2 0.3 0
v -0.2 0.4 0
v 0.3 0.3 0
v 0.3 0.4 0
v 1.1 0.4 0
v 1.1 1.5 0
v 1.2 0.3 0
v 1.2 1.6 0
v -1.2 0 -0.1
v -1.2 0.1 -0.1
v -1.2 0.3 -0.1
v -1.1 0.4 -0.1
v -1.1 1.5 -0.1
v -0.2 0.3 -0.1
v -0.2 0.4 -0.1
v 0.3 0.3 -0.1
v 0.3 0.4 -0.1
v 1.1 0.4 -0.1
v 1.1 1.5 -0.1
v 1.2 0 -0.1
v 1.2 0.1 -0.1
v 1.2 0.3 -0.1
v -1.2 0 0.1
v 1.2 0 0.1
v -1.2 0 -0.1
v 1.2 0 -0.1
v -1.2 0.3 0.1
v -0.3 0.3 0.1
v 0.3 0.3 0.1
v 1.2 0.3 0.1
v -1.2 0.3 0
v -0.3 0.3 0
v 0.3 0.3 0
v 1.2 0.3 0
v -1.1 0.4 0
v -0.2 0.4 0
v 0.3 0.4 0
v 1.1 0.4 0
v -1.1 0.4 -0.1
v -0.2 0.4 -0.1
v 0.3 0.4 -0.1
v 1.1 0.4 -0.1
v -1.2 0.1 0.1
v -0.3 0.1 0.1
v 0.3 0.1 0.1
v 1.2 0.1 0.1
v -1.2 0.1 0
v -0.3 0.1 0
v 0.3 0.1 0
v 1.2 0.1 0
v -1.2 0.3 0
v -0.2 0.3 0
v 0.3 0.3 0
v 1.2 0.3 0
v -1.2 0.3 -0.1
v -0.2 0.3 -0.1
v 0.3 0.3 -0.1
v 1.2 0.3 -0.1
v -1.1 1.5 0
v 1.1 1.5 0
v -1.1 1.5 -0.1
v 1.1 1.5 -0.1
v -1.2 1.6 0.1
v 1.2 1.6 0.1
v -1.2 1.6 0
v 1.2 1.6 0

# faces
f 3/2/1 2/2/1 1/2/1
f 4/2/1 2/2/1 3/2/1
f 5/2/1 2/2/1 4/2/1
f 7/1/1 5/1/1 4/1/1
f 8/1/1 5/1/1 7/1/1
f 9/2/1 7/2/1 6/2/1
f 10/2/1 7/2/1 9/2/1
f 13/2/1 12/2/1 11/2/1
f 14/2/1 12/2/1 13/2/1
f 17/2/1 16/2/1 15/2/1
f 18/2/1 16/2/1 17/2/1
f 21/2/1 20/2/1 19/2/1
f 22/2/1 20/2/1 21/2/1
f 23/2/2 24/2/2 25/2/2
f 25/2/2 24/2/2 26/2/2
f 26/2/2 27/2/2 28/2/2
f 28/2/2 27/2/2 29/2/2
f 30/2/2 31/2/2 32/2/2
f 32/2/2 31/2/2 33/2/2
f 34/2/2 35/2/2 36/2/2
f 36/2/2 35/2/2 37/2/2
f 37/2/2 35/2/2 38/2/2
f 37/1/2 38/1/2 40/1/2
f 40/1/2 38/1/2 41/1/2
f 39/2/2 40/2/2 42/2/2
f 42/2/2 40/2/2 43/2/2
f 48/2/3 47/2/3 46/2/3
f 49/2/3 47/2/3 48/2/3
f 50/2/3 45/2/3 44/2/3
f 51/2/3 48/2/3 46/2/3
f 52/2/3 50/2/3 44/2/3
f 52/2/3 51/2/3 50/2/3
f 53/2/3 48/2/3 51/2/3
f 53/2/3 51/2/3 52/2/3
f 54/3/3 49/3/3 48/3/3
f 54/2/3 48/2/3 53/2/3
f 55/2/3 47/2/3 49/2/3
f 55/3/3 49/3/3 54/3/3
f 56/2/3 52/2/3 44/2/3
f 57/2/3 52/2/3 56/2/3
f 58/2/3 54/2/3 53/2/3
f 58/2/3 55/2/3 54/2/3
f 59/2/3 47/2/3 55/2/3
f 59/2/3 55/2/3 58/2/3
f 62/1/3 61/1/3 60/1/3
f 63/1/3 61/1/3 62/1/3
f 66/1/3 65/1/3 64/1/3
f 67/1/3 65/1/3 66/1/3
f 68/2/4 69/2/4 70/2/4
f 70/2/4 69/2/4 71/2/4
f 68/2/4 70/2/4 72/2/4
f 72/2/4 70/2/4 73/2/4
f 74/2/4 75/2/4 76/2/4
f 71/2/4 69/2/4 77/2/4
f 74/2/4 76/2/4 78/2/4
f 76/2/4 77/2/4 78/2/4
f 77/2/4 69/2/4 79/2/4
f 78/2/4 77/2/4 79/2/4
f 81/1/4 82/1/4 85/1/4
f 83/2/4 84/2/4 86/2/4
f 81/1/4 85/1/4 87/1/4
f 85/2/4 86/2/4 87/2/4
f 86/2/4 84/2/4 88/2/4
f 87/2/4 86/2/4 88/2/4
f 88/2/4 84/2/4 89/2/4
f 89/2/4 84/2/4 90/2/4
f 80/2/4 81/2/4 91/2/4
f 81/1/4 87/1/4 92/1/4
f 91/2/4 81/2/4 92/2/4
f 92/1/4 87/1/4 93/1/4
f 96/2/5 95/2/5 94/2/5
f 97/2/5 95/2/5 96/2/5
f 102/2/5 99/2/5 98/2/5
f 103/2/5 99/2/5 102/2/5
f 104/2/5 101/2/5 100/2/5
f 105/2/5 101/2/5 104/2/5
f 110/2/5 107/2/5 106/2/5
f 111/2/5 107/2/5 110/2/5
f 112/2/5 109/2/5 108/2/5
f 113/2/5 109/2/5 112/2/5
f 114/2/6 115/2/6 118/2/6
f 118/2/6 115/2/6 119/2/6
f 116/2/6 117/2/6 120/2/6
f 120/2/6 117/2/6 121/2/6
f 122/1/6 123/1/6 126/1/6
f 126/1/6 123/1/6 127/1/6
f 124/1/6 125/1/6 128/1/6
f 128/1/6 125/1/6 129/1/6
f 130/2/6 131/2/6 132/2/6
f 132/2/6 131/2/6 133/2/6
f 134/2/6 135/2/6 136/2/6
f 136/2/6 135/2/6 137/2/6
