# MagicaVoxel @ Ephtracy

# group
o 

# material
mtllib WaterTap.mtl
usemtl palette

# normals
vn -1 0 0
vn 1 0 0
vn 0 0 1
vn 0 0 -1
vn 0 -1 0
vn 0 1 0

# texcoords
vt 0.576172 0.5
vt 0.767578 0.5
vt 0.994141 0.5

# verts
v -0.4 0 0.4
v -0.4 0 -0.4
v -0.4 0.2 0.4
v -0.4 0.2 -0.4
v -0.1 0.2 -0.3
v -0.1 0.2 -0.4
v -0.1 0.3 0
v -0.1 0.3 -0.3
v -0.1 0.4 0
v -0.1 0.4 -0.4
v 0.3 0.1 0.3
v 0.3 0.1 -0.3
v 0.3 0.2 0.3
v 0.3 0.2 -0.3
v -0.3 0.1 0.3
v -0.3 0.1 -0.3
v -0.3 0.2 0.3
v -0.3 0.2 -0.3
v 0.1 0.2 -0.3
v 0.1 0.2 -0.4
v 0.1 0.3 0
v 0.1 0.3 -0.3
v 0.1 0.4 0
v 0.1 0.4 -0.4
v 0.4 0 0.4
v 0.4 0 -0.4
v 0.4 0.2 0.4
v 0.4 0.2 -0.4
v -0.4 0 0.4
v -0.4 0.2 0.4
v 0.4 0 0.4
v 0.4 0.2 0.4
v -0.1 0.3 0
v -0.1 0.4 0
v 0.1 0.3 0
v 0.1 0.4 0
v -0.3 0.1 -0.3
v -0.3 0.2 -0.3
v -0.2 0.1 -0.3
v -0.2 0.2 -0.3
v -0.1 0.2 -0.3
v -0.1 0.3 -0.3
v 0.1 0.2 -0.3
v 0.1 0.3 -0.3
v 0.2 0.1 -0.3
v 0.2 0.2 -0.3
v 0.3 0.1 -0.3
v 0.3 0.2 -0.3
v -0.3 0.1 0.3
v -0.3 0.2 0.3
v 0.3 0.1 0.3
v 0.3 0.2 0.3
v -0.4 0 -0.4
v -0.4 0.2 -0.4
v -0.2 0.1 -0.4
v -0.2 0.2 -0.4
v -0.1 0.2 -0.4
v -0.1 0.4 -0.4
v 0.1 0.2 -0.4
v 0.1 0.4 -0.4
v 0.2 0.1 -0.4
v 0.2 0.2 -0.4
v 0.4 0 -0.4
v 0.4 0.2 -0.4
v -0.4 0 0.4
v 0.4 0 0.4
v -0.3 0 0.3
v 0.3 0 0.3
v -0.3 0 -0.3
v 0.3 0 -0.3
v -0.4 0 -0.4
v 0.4 0 -0.4
v -0.1 0.3 0
v 0.1 0.3 0
v -0.1 0.3 -0.3
v 0.1 0.3 -0.3
v -0.3 0.1 0.3
v 0.3 0.1 0.3
v -0.3 0.1 -0.3
v -0.2 0.1 -0.3
v 0.2 0.1 -0.3
v 0.3 0.1 -0.3
v -0.4 0.2 0.4
v 0.4 0.2 0.4
v -0.3 0.2 0.3
v 0.3 0.2 0.3
v -0.3 0.2 -0.3
v -0.2 0.2 -0.3
v -0.1 0.2 -0.3
v 0.1 0.2 -0.3
v 0.2 0.2 -0.3
v 0.3 0.2 -0.3
v -0.4 0.2 -0.4
v -0.2 0.2 -0.4
v -0.1 0.2 -0.4
v 0.1 0.2 -0.4
v 0.2 0.2 -0.4
v 0.4 0.2 -0.4
v -0.1 0.4 0
v 0.1 0.4 0
v -0.1 0.4 -0.4
v 0.1 0.4 -0.4

# faces
f 3/1/1 2/1/1 1/1/1
f 4/1/1 2/1/1 3/1/1
f 8/2/1 6/2/1 5/2/1
f 9/2/1 8/2/1 7/2/1
f 10/2/1 6/2/1 8/2/1
f 10/2/1 8/2/1 9/2/1
f 13/1/1 12/1/1 11/1/1
f 14/1/1 12/1/1 13/1/1
f 15/1/2 16/1/2 17/1/2
f 17/1/2 16/1/2 18/1/2
f 19/2/2 20/2/2 22/2/2
f 21/2/2 22/2/2 23/2/2
f 22/2/2 20/2/2 24/2/2
f 23/2/2 22/2/2 24/2/2
f 25/1/2 26/1/2 27/1/2
f 27/1/2 26/1/2 28/1/2
f 31/1/3 30/1/3 29/1/3
f 32/1/3 30/1/3 31/1/3
f 35/2/3 34/2/3 33/2/3
f 36/2/3 34/2/3 35/2/3
f 39/1/3 38/1/3 37/1/3
f 40/1/3 38/1/3 39/1/3
f 41/2/3 40/2/3 39/2/3
f 43/2/3 41/2/3 39/2/3
f 43/2/3 42/2/3 41/2/3
f 44/2/3 42/2/3 43/2/3
f 45/2/3 43/2/3 39/2/3
f 46/2/3 43/2/3 45/2/3
f 47/1/3 46/1/3 45/1/3
f 48/1/3 46/1/3 47/1/3
f 49/1/4 50/1/4 51/1/4
f 51/1/4 50/1/4 52/1/4
f 53/1/4 54/1/4 55/1/4
f 55/1/4 54/1/4 56/1/4
f 55/2/4 56/2/4 57/2/4
f 55/2/4 57/2/4 59/2/4
f 57/2/4 58/2/4 59/2/4
f 59/2/4 58/2/4 60/2/4
f 53/1/4 55/1/4 61/1/4
f 55/2/4 59/2/4 61/2/4
f 61/2/4 59/2/4 62/2/4
f 53/1/4 61/1/4 63/1/4
f 61/1/4 62/1/4 63/1/4
f 63/1/4 62/1/4 64/1/4
f 67/1/5 66/1/5 65/1/5
f 68/1/5 66/1/5 67/1/5
f 69/1/5 67/1/5 65/1/5
f 69/3/5 68/3/5 67/3/5
f 70/1/5 66/1/5 68/1/5
f 70/3/5 68/3/5 69/3/5
f 71/1/5 69/1/5 65/1/5
f 71/1/5 70/1/5 69/1/5
f 72/1/5 66/1/5 70/1/5
f 72/1/5 70/1/5 71/1/5
f 75/2/5 74/2/5 73/2/5
f 76/2/5 74/2/5 75/2/5
f 77/3/6 78/3/6 79/3/6
f 79/3/6 78/3/6 80/3/6
f 80/3/6 78/3/6 81/3/6
f 81/3/6 78/3/6 82/3/6
f 83/1/6 84/1/6 85/1/6
f 85/1/6 84/1/6 86/1/6
f 83/1/6 85/1/6 87/1/6
f 86/1/6 84/1/6 92/1/6
f 83/1/6 87/1/6 93/1/6
f 87/1/6 88/1/6 93/1/6
f 88/2/6 89/2/6 94/2/6
f 93/1/6 88/1/6 94/1/6
f 94/2/6 89/2/6 95/2/6
f 90/2/6 91/2/6 96/2/6
f 91/1/6 92/1/6 97/1/6
f 96/2/6 91/2/6 97/2/6
f 92/1/6 84/1/6 98/1/6
f 97/1/6 92/1/6 98/1/6
f 99/2/6 100/2/6 101/2/6
f 101/2/6 100/2/6 102/2/6
