# MagicaVoxel @ Ephtracy

# group
o 

# material
mtllib Window01.mtl
usemtl palette

# normals
vn -1 0 0
vn 1 0 0
vn 0 0 1
vn 0 0 -1
vn 0 -1 0
vn 0 1 0

# texcoords
vt 0.576172 0.5
vt 0.767578 0.5
vt 0.798828 0.5

# verts
v -0.1 0 0.8
v -0.1 0 -0.8
v -0.1 0.1 0.7
v -0.1 0.1 0.4
v -0.1 0.1 0.1
v -0.1 0.1 -0.1
v -0.1 0.1 -0.5
v -0.1 0.1 -0.7
v -0.1 0.3 0.5
v -0.1 0.3 0.4
v -0.1 0.3 -0.5
v -0.1 0.3 -0.6
v -0.1 0.5 0.5
v -0.1 0.5 0.3
v -0.1 0.5 -0.4
v -0.1 0.5 -0.6
v -0.1 0.6 0.3
v -0.1 0.6 0.2
v -0.1 0.6 -0.3
v -0.1 0.6 -0.4
v -0.1 1.1 0.7
v -0.1 1.1 0.2
v -0.1 1.1 0.1
v -0.1 1.1 -0.1
v -0.1 1.1 -0.3
v -0.1 1.1 -0.7
v -0.1 1.2 0.8
v -0.1 1.2 -0.8
v 0 0 0.4
v 0 0 -0.5
v 0 0.1 0.4
v 0 0.1 0.1
v 0 0.1 -0.1
v 0 0.1 -0.5
v 0 1.1 0.2
v 0 1.1 0.1
v 0 1.1 -0.1
v 0 1.1 -0.3
v 0 1.2 0.2
v 0 1.2 -0.3
v 0.1 0 0.8
v 0.1 0 0.7
v 0.1 0 0.6
v 0.1 0 0.5
v 0.1 0 0.4
v 0.1 0 -0.5
v 0.1 0 -0.6
v 0.1 0 -0.7
v 0.1 0 -0.8
v 0.1 0.3 0.5
v 0.1 0.3 0.4
v 0.1 0.3 -0.5
v 0.1 0.3 -0.6
v 0.1 0.5 0.5
v 0.1 0.5 0.3
v 0.1 0.5 -0.4
v 0.1 0.5 -0.6
v 0.1 0.6 0.5
v 0.1 0.6 0.4
v 0.1 0.6 0.3
v 0.1 0.6 0.2
v 0.1 0.6 -0.3
v 0.1 0.6 -0.4
v 0.1 0.6 -0.5
v 0.1 0.6 -0.6
v 0.1 0.7 0.5
v 0.1 0.7 0.4
v 0.1 0.7 0.3
v 0.1 0.7 -0.4
v 0.1 0.7 -0.5
v 0.1 0.7 -0.6
v 0.1 1.2 0.8
v 0.1 1.2 0.7
v 0.1 1.2 0.6
v 0.1 1.2 0.5
v 0.1 1.2 0.4
v 0.1 1.2 0.3
v 0.1 1.2 0.2
v 0.1 1.2 -0.3
v 0.1 1.2 -0.4
v 0.1 1.2 -0.5
v 0.1 1.2 -0.6
v 0.1 1.2 -0.7
v 0.1 1.2 -0.8
v -0.1 0 0.8
v -0.1 1.2 0.8
v 0 0 0.8
v 0 1.2 0.8
v 0.1 0 0.8
v 0.1 1.2 0.8
v -0.1 0.1 0.1
v -0.1 1.1 0.1
v 0 0.1 0.1
v 0 1.1 0.1
v -0.1 0.6 -0.3
v -0.1 1.1 -0.3
v 0 1.1 -0.3
v 0 1.2 -0.3
v 0.1 0.6 -0.3
v 0.1 1.2 -0.3
v -0.1 0.5 -0.4
v -0.1 0.6 -0.4
v 0.1 0.5 -0.4
v 0.1 0.6 -0.4
v -0.1 0.1 -0.5
v -0.1 0.3 -0.5
v 0 0 -0.5
v 0 0.1 -0.5
v 0.1 0 -0.5
v 0.1 0.3 -0.5
v -0.1 0.3 -0.6
v -0.1 0.5 -0.6
v 0 0.3 -0.6
v 0 0.5 -0.6
v 0.1 0.3 -0.6
v 0.1 0.5 -0.6
v -0.1 0.3 0.5
v -0.1 0.5 0.5
v 0 0.3 0.5
v 0 0.5 0.5
v 0.1 0.3 0.5
v 0.1 0.5 0.5
v -0.1 0.1 0.4
v -0.1 0.3 0.4
v 0 0 0.4
v 0 0.1 0.4
v 0.1 0 0.4
v 0.1 0.3 0.4
v -0.1 0.5 0.3
v -0.1 0.6 0.3
v 0.1 0.5 0.3
v 0.1 0.6 0.3
v -0.1 0.6 0.2
v -0.1 1.1 0.2
v 0 1.1 0.2
v 0 1.2 0.2
v 0.1 0.6 0.2
v 0.1 1.2 0.2
v -0.1 0.1 -0.1
v -0.1 1.1 -0.1
v 0 0.1 -0.1
v 0 1.1 -0.1
v -0.1 0 -0.8
v -0.1 1.2 -0.8
v 0 0 -0.8
v 0 1.2 -0.8
v 0.1 0 -0.8
v 0.1 1.2 -0.8
v -0.1 0 0.8
v 0 0 0.8
v 0.1 0 0.8
v 0 0 0.7
v 0.1 0 0.7
v 0 0 0.6
v 0.1 0 0.6
v 0 0 0.5
v 0.1 0 0.5
v 0 0 0.4
v 0.1 0 0.4
v 0 0 -0.5
v 0.1 0 -0.5
v 0 0 -0.6
v 0.1 0 -0.6
v 0 0 -0.7
v 0.1 0 -0.7
v -0.1 0 -0.8
v 0 0 -0.8
v 0.1 0 -0.8
v -0.1 0.5 0.5
v 0 0.5 0.5
v 0.1 0.5 0.5
v -0.1 0.5 0.3
v 0.1 0.5 0.3
v -0.1 0.5 -0.4
v 0.1 0.5 -0.4
v -0.1 0.5 -0.6
v 0 0.5 -0.6
v 0.1 0.5 -0.6
v -0.1 0.6 0.3
v 0.1 0.6 0.3
v -0.1 0.6 0.2
v 0.1 0.6 0.2
v -0.1 0.6 -0.3
v 0.1 0.6 -0.3
v -0.1 0.6 -0.4
v 0.1 0.6 -0.4
v -0.1 1.1 0.2
v 0 1.1 0.2
v -0.1 1.1 0.1
v 0 1.1 0.1
v -0.1 1.1 -0.1
v 0 1.1 -0.1
v -0.1 1.1 -0.3
v 0 1.1 -0.3
v -0.1 0.1 0.4
v 0 0.1 0.4
v -0.1 0.1 0.1
v 0 0.1 0.1
v -0.1 0.1 -0.1
v 0 0.1 -0.1
v -0.1 0.1 -0.5
v 0 0.1 -0.5
v -0.1 0.3 0.5
v 0 0.3 0.5
v 0.1 0.3 0.5
v -0.1 0.3 0.4
v 0.1 0.3 0.4
v -0.1 0.3 -0.5
v 0.1 0.3 -0.5
v -0.1 0.3 -0.6
v 0 0.3 -0.6
v 0.1 0.3 -0.6
v -0.1 1.2 0.8
v 0 1.2 0.8
v 0.1 1.2 0.8
v 0 1.2 0.7
v 0.1 1.2 0.7
v 0 1.2 0.6
v 0.1 1.2 0.6
v 0 1.2 0.5
v 0.1 1.2 0.5
v 0 1.2 0.4
v 0.1 1.2 0.4
v 0 1.2 0.3
v 0.1 1.2 0.3
v 0 1.2 0.2
v 0.1 1.2 0.2
v 0 1.2 -0.3
v 0.1 1.2 -0.3
v 0 1.2 -0.4
v 0.1 1.2 -0.4
v 0 1.2 -0.5
v 0.1 1.2 -0.5
v 0 1.2 -0.6
v 0.1 1.2 -0.6
v 0 1.2 -0.7
v 0.1 1.2 -0.7
v -0.1 1.2 -0.8
v 0 1.2 -0.8
v 0.1 1.2 -0.8

# faces
f 3/1/1 2/1/1 1/1/1
f 4/1/1 2/1/1 3/1/1
f 5/1/1 2/1/1 4/1/1
f 6/1/1 2/1/1 5/1/1
f 7/1/1 2/1/1 6/1/1
f 8/1/1 2/1/1 7/1/1
f 9/2/1 4/2/1 3/2/1
f 10/2/1 4/2/1 9/2/1
f 11/2/1 8/2/1 7/2/1
f 12/2/1 8/2/1 11/2/1
f 13/2/1 9/2/1 3/2/1
f 16/2/1 8/2/1 12/2/1
f 17/2/1 14/2/1 13/2/1
f 20/2/1 16/2/1 15/2/1
f 21/1/1 3/1/1 1/1/1
f 21/2/1 18/2/1 17/2/1
f 21/2/1 13/2/1 3/2/1
f 21/2/1 17/2/1 13/2/1
f 22/2/1 18/2/1 21/2/1
f 23/1/1 6/1/1 5/1/1
f 24/1/1 6/1/1 23/1/1
f 25/2/1 20/2/1 19/2/1
f 26/1/1 2/1/1 8/1/1
f 26/2/1 16/2/1 20/2/1
f 26/2/1 20/2/1 25/2/1
f 26/2/1 8/2/1 16/2/1
f 27/1/1 24/1/1 23/1/1
f 27/1/1 25/1/1 24/1/1
f 27/1/1 26/1/1 25/1/1
f 27/1/1 22/1/1 21/1/1
f 27/1/1 21/1/1 1/1/1
f 27/1/1 23/1/1 22/1/1
f 28/1/1 2/1/1 26/1/1
f 28/1/1 26/1/1 27/1/1
f 29/1/2 30/1/2 31/1/2
f 31/1/2 30/1/2 32/1/2
f 32/1/2 30/1/2 33/1/2
f 33/1/2 30/1/2 34/1/2
f 32/1/2 33/1/2 36/1/2
f 36/1/2 33/1/2 37/1/2
f 35/1/2 36/1/2 39/1/2
f 37/1/2 38/1/2 39/1/2
f 36/1/2 37/1/2 39/1/2
f 39/1/2 38/1/2 40/1/2
f 43/3/2 44/3/2 50/3/2
f 44/2/2 45/2/2 50/2/2
f 50/2/2 45/2/2 51/2/2
f 46/2/2 47/2/2 52/2/2
f 47/3/2 48/3/2 53/3/2
f 52/2/2 47/2/2 53/2/2
f 43/3/2 50/3/2 54/3/2
f 53/3/2 48/3/2 57/3/2
f 54/2/2 55/2/2 58/2/2
f 43/3/2 54/3/2 58/3/2
f 58/2/2 55/2/2 59/2/2
f 59/2/2 55/2/2 60/2/2
f 56/2/2 57/2/2 63/2/2
f 63/2/2 57/2/2 64/2/2
f 57/3/2 48/3/2 65/3/2
f 64/2/2 57/2/2 65/2/2
f 43/3/2 58/3/2 66/3/2
f 58/3/2 59/3/2 66/3/2
f 60/2/2 61/2/2 67/2/2
f 66/3/2 59/3/2 67/3/2
f 59/2/2 60/2/2 67/2/2
f 67/2/2 61/2/2 68/2/2
f 63/2/2 64/2/2 69/2/2
f 62/2/2 63/2/2 69/2/2
f 64/3/2 65/3/2 70/3/2
f 69/2/2 64/2/2 70/2/2
f 65/3/2 48/3/2 71/3/2
f 70/3/2 65/3/2 71/3/2
f 41/3/2 42/3/2 72/3/2
f 42/2/2 43/2/2 73/2/2
f 72/3/2 42/3/2 73/3/2
f 43/3/2 66/3/2 74/3/2
f 73/2/2 43/2/2 74/2/2
f 66/2/2 67/2/2 75/2/2
f 74/3/2 66/3/2 75/3/2
f 67/3/2 68/3/2 76/3/2
f 75/2/2 67/2/2 76/2/2
f 68/2/2 61/2/2 77/2/2
f 76/3/2 68/3/2 77/3/2
f 77/2/2 61/2/2 78/2/2
f 62/2/2 69/2/2 79/2/2
f 69/3/2 70/3/2 80/3/2
f 79/2/2 69/2/2 80/2/2
f 70/2/2 71/2/2 81/2/2
f 80/3/2 70/3/2 81/3/2
f 71/3/2 48/3/2 82/3/2
f 81/2/2 71/2/2 82/2/2
f 48/2/2 49/2/2 83/2/2
f 82/3/2 48/3/2 83/3/2
f 83/2/2 49/2/2 84/2/2
f 87/1/3 86/1/3 85/1/3
f 88/1/3 86/1/3 87/1/3
f 89/3/3 88/3/3 87/3/3
f 90/3/3 88/3/3 89/3/3
f 93/1/3 92/1/3 91/1/3
f 94/1/3 92/1/3 93/1/3
f 97/2/3 96/2/3 95/2/3
f 99/2/3 97/2/3 95/2/3
f 99/2/3 98/2/3 97/2/3
f 100/2/3 98/2/3 99/2/3
f 103/2/3 102/2/3 101/2/3
f 104/2/3 102/2/3 103/2/3
f 108/2/3 106/2/3 105/2/3
f 109/2/3 108/2/3 107/2/3
f 110/2/3 106/2/3 108/2/3
f 110/2/3 108/2/3 109/2/3
f 113/2/3 112/2/3 111/2/3
f 114/2/3 112/2/3 113/2/3
f 115/3/3 114/3/3 113/3/3
f 116/3/3 114/3/3 115/3/3
f 117/2/4 118/2/4 119/2/4
f 119/2/4 118/2/4 120/2/4
f 119/3/4 120/3/4 121/3/4
f 121/3/4 120/3/4 122/3/4
f 123/2/4 124/2/4 126/2/4
f 125/2/4 126/2/4 127/2/4
f 126/2/4 124/2/4 128/2/4
f 127/2/4 126/2/4 128/2/4
f 129/2/4 130/2/4 131/2/4
f 131/2/4 130/2/4 132/2/4
f 133/2/4 134/2/4 135/2/4
f 133/2/4 135/2/4 137/2/4
f 135/2/4 136/2/4 137/2/4
f 137/2/4 136/2/4 138/2/4
f 139/1/4 140/1/4 141/1/4
f 141/1/4 140/1/4 142/1/4
f 143/1/4 144/1/4 145/1/4
f 145/1/4 144/1/4 146/1/4
f 145/2/4 146/2/4 147/2/4
f 147/2/4 146/2/4 148/2/4
f 152/1/5 150/1/5 149/1/5
f 152/3/5 151/3/5 150/3/5
f 153/3/5 151/3/5 152/3/5
f 154/1/5 152/1/5 149/1/5
f 154/2/5 153/2/5 152/2/5
f 155/2/5 153/2/5 154/2/5
f 156/1/5 154/1/5 149/1/5
f 156/3/5 155/3/5 154/3/5
f 157/3/5 155/3/5 156/3/5
f 158/1/5 156/1/5 149/1/5
f 158/2/5 157/2/5 156/2/5
f 159/2/5 157/2/5 158/2/5
f 160/1/5 158/1/5 149/1/5
f 162/1/5 160/1/5 149/1/5
f 162/2/5 161/2/5 160/2/5
f 163/2/5 161/2/5 162/2/5
f 164/1/5 162/1/5 149/1/5
f 164/3/5 163/3/5 162/3/5
f 165/3/5 163/3/5 164/3/5
f 166/1/5 164/1/5 149/1/5
f 167/2/5 165/2/5 164/2/5
f 167/1/5 164/1/5 166/1/5
f 168/2/5 165/2/5 167/2/5
f 172/2/5 170/2/5 169/2/5
f 172/2/5 171/2/5 170/2/5
f 173/2/5 171/2/5 172/2/5
f 176/2/5 175/2/5 174/2/5
f 177/2/5 175/2/5 176/2/5
f 178/2/5 175/2/5 177/2/5
f 181/2/5 180/2/5 179/2/5
f 182/2/5 180/2/5 181/2/5
f 185/2/5 184/2/5 183/2/5
f 186/2/5 184/2/5 185/2/5
f 189/1/5 188/1/5 187/1/5
f 190/1/5 188/1/5 189/1/5
f 193/1/5 192/1/5 191/1/5
f 194/1/5 192/1/5 193/1/5
f 195/1/6 196/1/6 197/1/6
f 197/1/6 196/1/6 198/1/6
f 199/1/6 200/1/6 201/1/6
f 201/1/6 200/1/6 202/1/6
f 203/2/6 204/2/6 206/2/6
f 204/2/6 205/2/6 206/2/6
f 206/2/6 205/2/6 207/2/6
f 208/2/6 209/2/6 210/2/6
f 210/2/6 209/2/6 211/2/6
f 211/2/6 209/2/6 212/2/6
f 213/1/6 214/1/6 216/1/6
f 214/3/6 215/3/6 216/3/6
f 216/3/6 215/3/6 217/3/6
f 213/1/6 216/1/6 218/1/6
f 216/2/6 217/2/6 218/2/6
f 218/2/6 217/2/6 219/2/6
f 213/1/6 218/1/6 220/1/6
f 218/3/6 219/3/6 220/3/6
f 220/3/6 219/3/6 221/3/6
f 213/1/6 220/1/6 222/1/6
f 220/2/6 221/2/6 222/2/6
f 222/2/6 221/2/6 223/2/6
f 213/1/6 222/1/6 224/1/6
f 222/3/6 223/3/6 224/3/6
f 224/3/6 223/3/6 225/3/6
f 213/1/6 224/1/6 226/1/6
f 224/2/6 225/2/6 226/2/6
f 226/2/6 225/2/6 227/2/6
f 213/1/6 226/1/6 228/1/6
f 213/1/6 228/1/6 230/1/6
f 228/2/6 229/2/6 230/2/6
f 230/2/6 229/2/6 231/2/6
f 213/1/6 230/1/6 232/1/6
f 230/3/6 231/3/6 232/3/6
f 232/3/6 231/3/6 233/3/6
f 213/1/6 232/1/6 234/1/6
f 232/2/6 233/2/6 234/2/6
f 234/2/6 233/2/6 235/2/6
f 213/1/6 234/1/6 236/1/6
f 234/3/6 235/3/6 236/3/6
f 236/3/6 235/3/6 237/3/6
f 213/1/6 236/1/6 238/1/6
f 236/2/6 237/2/6 239/2/6
f 238/1/6 236/1/6 239/1/6
f 239/2/6 237/2/6 240/2/6
